<svg xmlns="http://www.w3.org/2000/svg" viewBox="0 0 395.38 395.6" width="400" height="400"><defs><style>.a{fill:#216194;}.b{fill:#017f9f;}.c{fill:#76b629;}.d{fill:#a53589;}.e{fill:#024f9d;}.f{fill:#50568c;}.g{fill:#c6d200;}.h{fill:#0369b2;}.i{fill:#007d75;}.j{fill:#008d6d;}.k{fill:#008051;}.l{fill:#46942b;}.m{fill:#d5146e;}.n{fill:#15a338;}.o{fill:#0080c7;}.p{fill:#0089d0;}.q{fill:#e9bb00;}.r{fill:#007632;}.s{fill:#c51553;}.t{fill:#593872;}.u{fill:#f19000;}.v{fill:#f9b800;}.w{fill:#fddb00;}.x{fill:#e43311;}.y{fill:#b7c200;}.z{fill:#e64e10;}.aa{fill:#079de1;}.ab{fill:#93bf1f;}</style></defs><title>human-connction-logo-plain</title><path class="a" d="M286,82.23a280.12,280.12,0,0,0-39.69-9.31c1.33,6.43,2.44,13.3,3.55,20.18C266,88.66,275.09,89.33,286,82.23" transform="translate(-2.56 -2.4)"/><path class="b" d="M322.77,153.41a42,42,0,0,1,5.1,1.11c-.67-3.55-1.11-7.32-2-10.64a15.4,15.4,0,0,1-1.11,2.88,33,33,0,0,0-2,6.65" transform="translate(-2.56 -2.4)"/><path class="c" d="M185.5,345.89a34.74,34.74,0,0,1-1.11-6.65c0-.22,0-.89-.22-1.11a197.65,197.65,0,0,1-19.74-1.77c9.09,37.92,22,61.65,35.92,61.65a11,11,0,0,0,5.32-1.11c-2.22-5.54-5.1-12.2-7.32-17.07-7.32-17.3-11.75-27.94-12.86-33.93" transform="translate(-2.56 -2.4)"/><path class="d" d="M95.92,80.46a275.53,275.53,0,0,1,60.54-15.74C162.89,36.55,172,14.37,182.84,2.84h-.67c-35.26,7.76-65.86,36.59-86.26,77.61" transform="translate(-2.56 -2.4)"/><path class="e" d="M236.51,64c-9.09-38.14-22-61.65-36.15-61.65S173.31,25.91,164.44,64a301.36,301.36,0,0,1,72.07,0" transform="translate(-2.56 -2.4)"/><path class="f" d="M199,119c9.31-10.2,13.53-9.09,27.05-16a177.7,177.7,0,0,1,16.63-7.54c-1.33-8.43-2.88-16.41-4.43-23.95a308.13,308.13,0,0,0-75.62,0c-2,9.09-3.55,18.63-5.1,28.61,15.08,1.77,29.71,6,41.47,18.85" transform="translate(-2.56 -2.4)"/><path class="g" d="M155.79,287.13c2,14.86,4.21,29,6.65,41.69,6.65.89,13.3,1.33,20,2a43.11,43.11,0,0,0-4.43-10.2c-2.88-4.43-12.86-20-22.17-33.48" transform="translate(-2.56 -2.4)"/><path class="h" d="M218.32,3.29h0c9.31,9.76,17.74,28.38,24.39,55.44A33.18,33.18,0,0,1,244,65.15a274.79,274.79,0,0,1,48.34,11.31,47.2,47.2,0,0,0,5.54-7.54c-19.74-35-47.68-59-79.61-65.64" transform="translate(-2.56 -2.4)"/><path class="b" d="M335.63,156.07c28.16,6.43,50.34,15.52,61.87,26.39v-.67c-6.21-29-26.61-54.77-56.77-74.51-3.1,6.43-6.21,13.75-9.76,22.84,1.77,8.65,3.55,17.3,4.66,25.94" transform="translate(-2.56 -2.4)"/><path class="i" d="M397.94,200.2c0-14-23.51-27.05-61.65-35.92a301.37,301.37,0,0,1,0,72.07c38.14-9.09,61.65-22,61.65-36.15" transform="translate(-2.56 -2.4)"/><path class="j" d="M288.4,224.37l-11.75,14c-.89,2.22-2,4.88-3.1,7.76A506.28,506.28,0,0,0,329,237.68a308.13,308.13,0,0,0,0-75.62c-2.44-.67-5.32-1.11-8.2-1.77,0,.67-.22,1.11-.22,1.77-3.77,16-8,33.93-32.15,62.31" transform="translate(-2.56 -2.4)"/><path class="k" d="M335.63,244.33a278.81,278.81,0,0,1-15.74,60.54c41.25-20.62,70.07-51.22,77.39-86.26v-.22c-9.76,9.54-28.38,18-55.44,24.84a36.91,36.91,0,0,0-6.21,1.11" transform="translate(-2.56 -2.4)"/><path class="l" d="M274.87,363.63a169.79,169.79,0,0,0,29.71-43.91c-7.76,3.1-15.74,5.54-24.17,8.2a75.48,75.48,0,0,1-2.88,19.74c-.89,4.88-2,9.76-2.66,16" transform="translate(-2.56 -2.4)"/><path class="m" d="M26.73,125c16-16.63,36.81-30.16,58.76-39.91C99,54.73,119.42,27,146,10.16A199.43,199.43,0,0,0,15.64,128.8c2.44-1.11,4.66-1.77,11.09-3.77" transform="translate(-2.56 -2.4)"/><path class="n" d="M254,296.22l-.22.67c11.75,4.21,24.17,12.86,25.94,21.73,0,.67.22,1.11.22,1.77a231.09,231.09,0,0,0,29.49-10.64,263.79,263.79,0,0,0,18-63.42A565,565,0,0,1,270,254.75l-3.1,8.2c-5.54,13.75-11.31,28.61-12.86,33.26" transform="translate(-2.56 -2.4)"/><path class="o" d="M343.83,100.41c18.85,12.2,35.48,27.28,46.57,45.24a196.33,196.33,0,0,0-34.81-68.08c-1.33,2.88-3.1,6-4.88,9.09-1.77,4.21-4.21,8.87-6.87,13.75" transform="translate(-2.56 -2.4)"/><path class="p" d="M254.91,9.94c18.85,12.2,34.81,29.71,47.45,50.34a106.24,106.24,0,0,0,5.32-26.17A190,190,0,0,0,254.91,9.94" transform="translate(-2.56 -2.4)"/><path class="q" d="M85.27,315.29c-30.38-13.53-58.1-33.93-75-60.54A198.79,198.79,0,0,0,146,390.46c-26.61-16.63-47-44.79-60.76-75.17" transform="translate(-2.56 -2.4)"/><path class="r" d="M315.45,315.29c-10.2,22.4-24.17,43.91-41.25,60.09-.22,2.88-.22,5.54-.67,8.65A198.29,198.29,0,0,0,390.84,254.75c-17.07,26.61-44.79,47-75.39,60.54" transform="translate(-2.56 -2.4)"/><path class="s" d="M80.62,95.76a174.75,174.75,0,0,0-38.14,25.06c11.31-3.1,23.06-6.43,33.26-10.64,1.55-4.88,3.33-9.76,4.88-14.41" transform="translate(-2.56 -2.4)"/><path class="t" d="M105.67,98.2C130.51,99.53,149.8,100,149.8,100c1.33-9.31,2.88-18.63,4.88-27.05a260.92,260.92,0,0,0-63.42,18c-2,4.88-4,9.76-6,14.86,11.09-5.54,8.87-7.1,20.4-7.54" transform="translate(-2.56 -2.4)"/><path class="u" d="M116.54,235.46c-10.2-6-18.85-13.3-27.05-20.18-6-5.1-12.64-10.87-20-15.52a363,363,0,0,0,2.22,38.14,522.09,522.09,0,0,0,57.43,8.43,21.46,21.46,0,0,0-4.21-4.88,47.81,47.81,0,0,0-8.43-6" transform="translate(-2.56 -2.4)"/><path class="v" d="M80.62,304.87a275.53,275.53,0,0,1-15.74-60.54C37.6,238.12,16.31,229.69,4.33,219l-1.11.89c8.65,34.59,37,64.75,77.39,84.93" transform="translate(-2.56 -2.4)"/><path class="w" d="M134.94,254.75a586.27,586.27,0,0,1-61.87-8.65,260.92,260.92,0,0,0,18,63.42,263.79,263.79,0,0,0,63.42,18,450.53,450.53,0,0,1-7.76-54.33c-3.33-4.66-6.65-11.09-11.75-18.41" transform="translate(-2.56 -2.4)"/><path class="x" d="M30.94,198l-.22.22-20,16c9.76,8.43,28.61,16,53.44,22a276.41,276.41,0,0,1-2-40.58A38.63,38.63,0,0,0,46.69,192a21.34,21.34,0,0,0-15.74,6" transform="translate(-2.56 -2.4)"/><path class="y" d="M156.23,335.47A278.81,278.81,0,0,1,95.7,319.72C116.32,361,146.92,389.8,182,397.11h.22c-9.54-9.76-18-28.38-24.84-55.44a23,23,0,0,0-1.11-6.21" transform="translate(-2.56 -2.4)"/><path class="z" d="M46.69,184C65.32,184,81.5,197.54,95,209.07c8.2,6.65,16.41,14,25.94,19.74a39.1,39.1,0,0,1,9.76,7.54c4.21,4.21,4.88,5.1,7.1,8.65s4,6,5.1,6c2.22,0,7.1-2.44,7.76-6.21,1.77-7.54-5.54-14.64-11.31-20-7.76-7.54-20-21.07-23.28-27.28-26.61-49.67,32.15-90.25,67.41-61.65,3.55-3.33,7.1-7.76,9.76-10.64-18.85-20.62-45.9-15.74-73.4-17.74-4-.22-15.08-1.11-18.18-.22A39.3,39.3,0,0,0,93,111.5c-25.28,14-60.09,17.07-81.16,28.61A198.16,198.16,0,0,0,2.56,200.2c0,3.33,0,6.65.22,10.2l23.06-18.18A28.93,28.93,0,0,1,46.69,184" transform="translate(-2.56 -2.4)"/><path class="aa" d="M245.6,103.07c-10.64,4-19.07,9.54-25.28,11.53-11.75,4.21-13.3,7.54-22,17.07a127.92,127.92,0,0,1-9.54,10.42,4.94,4.94,0,0,0,1.11,2.88c3.1,4.43,7.54,2.88,11.53-.89,41.91-39.91,75.39-5.32,79.61,15.52,2,9.54,2.88,24.39-8.65,48.34,5.54,2,9.54,5.32,10.2,11.31,30.82-36.59,26.61-53.22,34.81-75.62,15.08-43,25.5-57.43,33.26-72.73-10.42-11.75-22-22.84-34.81-31.71-7.76,61.2-45.24,54.77-70.29,63.86" transform="translate(-2.56 -2.4)"/><path class="ab" d="M266.66,364.07c1.11-18.18,8.43-26.61,5.1-44.13-.89-4.43-11.75-13.53-24.17-16.63l-4-.67,2.88-9.09c1.77-6,10.2-27.05,17.52-45.24.89-2,10.2-23.51,9.76-27.28-.67-3.33-4.43-5.54-7.1-5.54s-5.32,4.88-8.2,9.76c-4,6.43-6.43,12.64-9.76,18.85h0c-3.55,6.65-7.54,13.75-11.75,21.29Q230.63,277,222.31,292a12.55,12.55,0,0,1-11.75,7.32c-4.43,0-9.54-1.33-10.87-2.44s-34.59-38.81-42.8-46.57A17.61,17.61,0,0,1,146,258.08c11.75,17.74,34.37,50.78,38.81,57.65,6.65,10.42,6.43,17.07,8.65,28.38,1.33,8.2,14.64,35.7,21.29,53.22a197.18,197.18,0,0,0,50.34-10.42c.44-7.76,1.11-15.52,1.55-22.84" transform="translate(-2.56 -2.4)"/></svg>